<svg width="798" height="362" viewBox="0 0 798 362" fill="none" xmlns="http://www.w3.org/2000/svg">
<path d="M4.77392 350.18L0.953919 353.406L7.40608 361.046L11.2261 357.82L8 354L4.77392 350.18ZM291 115L295.502 112.824L292.697 107.022L287.774 111.18L291 115ZM393 326L388.498 328.176L391.235 333.838L396.135 329.895L393 326ZM797.5 0.5L740.448 9.35608L776.644 54.3363L797.5 0.5ZM8 354L11.2261 357.82L294.226 118.82L291 115L287.774 111.18L4.77392 350.18L8 354ZM291 115L286.498 117.176L388.498 328.176L393 326L397.502 323.824L295.502 112.824L291 115ZM393 326L396.135 329.895L765.576 32.607L762.441 28.7116L759.307 24.8162L389.865 322.105L393 326Z" fill="#222222"/>
</svg>
