<svg width="295" height="36" viewBox="0 0 295 36" fill="none" xmlns="http://www.w3.org/2000/svg">
<path d="M17.056 35.48C12.352 35.48 8.384 33.816 5.152 30.488C1.952 27.128 0.352 23 0.352 18.104C0.352 13.272 1.952 9.208 5.152 5.912C8.384 2.584 12.352 0.919998 17.056 0.919998C20.768 0.919998 24.048 1.992 26.896 4.136C29.776 6.248 31.536 8.968 32.176 12.296H28.192C27.552 9.96 26.192 8.072 24.112 6.632C22.064 5.16 19.712 4.424 17.056 4.424C13.408 4.424 10.336 5.736 7.84 8.36C5.344 10.984 4.096 14.232 4.096 18.104C4.096 22.008 5.344 25.304 7.84 27.992C10.336 30.648 13.408 31.976 17.056 31.976C19.776 31.976 22.16 31.208 24.208 29.672C26.288 28.136 27.632 26.136 28.24 23.672H32.272C31.568 27.16 29.792 30.008 26.944 32.216C24.128 34.392 20.832 35.48 17.056 35.48ZM41.7636 5.912C45.0276 2.584 49.0436 0.919998 53.8116 0.919998C58.5796 0.919998 62.5956 2.584 65.8596 5.912C69.1236 9.208 70.7556 13.272 70.7556 18.104C70.7556 23 69.1236 27.128 65.8596 30.488C62.5956 33.816 58.5796 35.48 53.8116 35.48C49.0436 35.48 45.0276 33.816 41.7636 30.488C38.4996 27.128 36.8676 23 36.8676 18.104C36.8676 13.272 38.4996 9.208 41.7636 5.912ZM63.1716 8.36C60.6436 5.736 57.5236 4.424 53.8116 4.424C50.0996 4.424 46.9636 5.736 44.4036 8.36C41.8756 10.984 40.6116 14.232 40.6116 18.104C40.6116 22.008 41.8756 25.304 44.4036 27.992C46.9636 30.648 50.0996 31.976 53.8116 31.976C57.5236 31.976 60.6436 30.648 63.1716 27.992C65.7316 25.304 67.0116 22.008 67.0116 18.104C67.0116 14.232 65.7316 10.984 63.1716 8.36ZM76.8858 1.4H80.2938L99.1098 28.376V1.4H102.758V35H99.3978L80.4858 8.072V35H76.8858V1.4ZM133.635 1.4V4.856H122.595V35H118.995V4.856H107.955V1.4H133.635ZM156.974 35L153.71 26.792H137.822L134.558 35H130.718L144.158 1.4H147.422L160.91 35H156.974ZM139.214 23.336H152.366L145.79 6.728L139.214 23.336ZM178.681 35.48C173.977 35.48 170.009 33.816 166.777 30.488C163.577 27.128 161.977 23 161.977 18.104C161.977 13.272 163.577 9.208 166.777 5.912C170.009 2.584 173.977 0.919998 178.681 0.919998C182.393 0.919998 185.673 1.992 188.521 4.136C191.401 6.248 193.161 8.968 193.801 12.296H189.817C189.177 9.96 187.817 8.072 185.737 6.632C183.689 5.16 181.337 4.424 178.681 4.424C175.033 4.424 171.961 5.736 169.465 8.36C166.969 10.984 165.721 14.232 165.721 18.104C165.721 22.008 166.969 25.304 169.465 27.992C171.961 30.648 175.033 31.976 178.681 31.976C181.401 31.976 183.785 31.208 185.833 29.672C187.913 28.136 189.257 26.136 189.865 23.672H193.897C193.193 27.16 191.417 30.008 188.569 32.216C185.753 34.392 182.457 35.48 178.681 35.48ZM221.947 1.4V4.856H210.907V35H207.307V4.856H196.267V1.4H221.947ZM260.634 31.784C258.202 34.248 255.146 35.48 251.466 35.48C247.786 35.48 244.73 34.248 242.298 31.784C239.898 29.288 238.698 26.168 238.698 22.424V1.4H242.298V22.424C242.298 25.176 243.162 27.464 244.89 29.288C246.65 31.08 248.842 31.976 251.466 31.976C254.09 31.976 256.266 31.08 257.994 29.288C259.754 27.464 260.634 25.176 260.634 22.424V1.4H264.282V22.424C264.282 26.168 263.066 29.288 260.634 31.784ZM282.545 35.48C279.057 35.48 276.161 34.456 273.857 32.408C271.585 30.328 270.449 27.72 270.449 24.584H274.001C274.001 26.792 274.801 28.6 276.401 30.008C278.001 31.384 280.049 32.072 282.545 32.072C284.881 32.072 286.817 31.496 288.353 30.344C289.889 29.192 290.657 27.72 290.657 25.928C290.657 24.424 290.161 23.192 289.169 22.232C288.209 21.272 286.993 20.6 285.521 20.216C284.081 19.8 282.513 19.352 280.817 18.872C279.121 18.392 277.537 17.896 276.065 17.384C274.625 16.84 273.409 15.928 272.417 14.648C271.457 13.368 270.977 11.768 270.977 9.848C270.977 7.256 272.017 5.128 274.097 3.464C276.177 1.768 278.817 0.919998 282.017 0.919998C285.441 0.919998 288.161 1.848 290.177 3.704C292.193 5.528 293.201 7.848 293.201 10.664H289.505C289.441 8.808 288.705 7.304 287.297 6.152C285.889 4.968 284.097 4.376 281.921 4.376C279.745 4.376 277.969 4.888 276.593 5.912C275.217 6.904 274.529 8.216 274.529 9.848C274.529 10.904 274.801 11.8 275.345 12.536C275.921 13.272 276.673 13.832 277.601 14.216C278.529 14.6 279.585 14.968 280.769 15.32C281.953 15.672 283.153 15.976 284.369 16.232C285.617 16.488 286.833 16.872 288.017 17.384C289.201 17.864 290.257 18.424 291.185 19.064C292.113 19.704 292.849 20.616 293.393 21.8C293.969 22.984 294.257 24.36 294.257 25.928C294.257 28.68 293.137 30.968 290.897 32.792C288.689 34.584 285.905 35.48 282.545 35.48Z" fill="black"/>
</svg>
