<svg width="1165" height="182" viewBox="0 0 1165 182" fill="none" xmlns="http://www.w3.org/2000/svg">
<path d="M43.6621 102.42C33.1541 102.42 24.4448 99.3433 17.5341 93.19C10.7181 86.942 7.31014 79.0847 7.31014 69.618H20.8001C20.8001 75.4873 22.9301 80.268 27.1901 83.96C31.4501 87.652 36.9408 89.498 43.6621 89.498C49.9101 89.498 55.0695 88.0307 59.1401 85.096C63.2108 82.0667 65.2461 78.1853 65.2461 73.452C65.2461 68.8133 63.3055 65.1687 59.4241 62.518C55.5428 59.8673 50.8095 57.8793 45.2241 56.554C39.7335 55.2287 34.1955 53.7613 28.6101 52.152C23.1195 50.5427 18.4335 47.7027 14.5521 43.632C10.6708 39.5613 8.73014 34.1653 8.73014 27.444C8.73014 19.492 11.8541 12.96 18.1021 7.848C24.3501 2.736 32.2548 0.179995 41.8161 0.179995C52.4188 0.179995 60.7021 3.06733 66.6661 8.84199C72.7248 14.522 75.7541 21.622 75.7541 30.142H61.6961C61.5068 25.2193 59.5188 21.1487 55.7321 17.93C52.0401 14.7113 47.2595 13.102 41.3901 13.102C35.7101 13.102 31.0715 14.4273 27.4741 17.078C23.8768 19.7287 22.0781 23.184 22.0781 27.444C22.0781 30.568 23.1195 33.1713 25.2021 35.254C27.2848 37.3367 29.9828 38.946 33.2961 40.082C36.7041 41.1233 40.3961 42.1173 44.3721 43.064C48.4428 44.0107 52.4661 45.1467 56.4421 46.472C60.5128 47.7973 64.2048 49.454 67.5181 51.442C70.9261 53.43 73.6715 56.3173 75.7541 60.104C77.8368 63.796 78.8781 68.2453 78.8781 73.452C78.8781 81.7827 75.5175 88.6933 68.7961 94.184C62.1695 99.6747 53.7915 102.42 43.6621 102.42ZM161.857 1.59999V14.664H130.333V101H116.559V14.664H85.0352V1.59999H161.857ZM228.634 101L219.972 78.99H175.384L166.722 101H152.238L191.856 1.59999H203.642L243.544 101H228.634ZM180.638 65.926H214.86L197.82 22.332L180.638 65.926ZM328.749 101H312.277L285.865 59.678H268.967V101H255.193V1.59999H291.829C300.16 1.59999 307.213 4.39266 312.987 9.978C318.857 15.4687 321.791 22.2847 321.791 30.426C321.791 37.6207 319.898 43.7267 316.111 48.744C312.325 53.7613 307.213 57.0747 300.775 58.684L328.749 101ZM268.825 14.664L268.967 46.614H291.545C296.279 46.614 300.207 45.0993 303.331 42.07C306.455 38.946 308.017 35.0647 308.017 30.426C308.017 25.882 306.455 22.1427 303.331 19.208C300.207 16.1787 296.279 14.664 291.545 14.664H268.825ZM404.949 1.59999V14.664H373.425V101H359.651V14.664H328.127V1.59999H404.949ZM484.572 91.344C477.283 98.728 468.147 102.42 457.166 102.42C446.185 102.42 437.049 98.728 429.76 91.344C422.471 83.96 418.826 74.6827 418.826 63.512V1.59999H432.6V63.512C432.6 70.8013 434.919 76.9073 439.558 81.83C444.197 86.658 450.066 89.072 457.166 89.072C464.266 89.072 470.135 86.658 474.774 81.83C479.413 76.9073 481.732 70.8013 481.732 63.512V1.59999H495.506V63.512C495.506 74.6827 491.861 83.96 484.572 91.344ZM553.817 1.59999C562.526 1.59999 569.768 4.43999 575.543 10.12C581.412 15.7053 584.347 22.7107 584.347 31.136C584.347 39.5613 581.412 46.614 575.543 52.294C569.768 57.974 562.526 60.814 553.817 60.814H529.393V101H515.619V1.59999H553.817ZM553.817 47.75C558.55 47.75 562.526 46.1407 565.745 42.922C569.058 39.7033 570.715 35.7747 570.715 31.136C570.715 26.4973 569.058 22.616 565.745 19.492C562.526 16.2733 558.55 14.664 553.817 14.664H529.393V47.75H553.817ZM665.051 102.42C654.543 102.42 645.833 99.3433 638.923 93.19C632.107 86.942 628.699 79.0847 628.699 69.618H642.189C642.189 75.4873 644.319 80.268 648.579 83.96C652.839 87.652 658.329 89.498 665.051 89.498C671.299 89.498 676.458 88.0307 680.529 85.096C684.599 82.0667 686.635 78.1853 686.635 73.452C686.635 68.8133 684.694 65.1687 680.813 62.518C676.931 59.8673 672.198 57.8793 666.613 56.554C661.122 55.2287 655.584 53.7613 649.999 52.152C644.508 50.5427 639.822 47.7027 635.941 43.632C632.059 39.5613 630.119 34.1653 630.119 27.444C630.119 19.492 633.243 12.96 639.491 7.848C645.739 2.736 653.643 0.179995 663.205 0.179995C673.807 0.179995 682.091 3.06733 688.055 8.84199C694.113 14.522 697.143 21.622 697.143 30.142H683.085C682.895 25.2193 680.907 21.1487 677.121 17.93C673.429 14.7113 668.648 13.102 662.779 13.102C657.099 13.102 652.46 14.4273 648.863 17.078C645.265 19.7287 643.467 23.184 643.467 27.444C643.467 30.568 644.508 33.1713 646.591 35.254C648.673 37.3367 651.371 38.946 654.685 40.082C658.093 41.1233 661.785 42.1173 665.761 43.064C669.831 44.0107 673.855 45.1467 677.831 46.472C681.901 47.7973 685.593 49.454 688.907 51.442C692.315 53.43 695.06 56.3173 697.143 60.104C699.225 63.796 700.267 68.2453 700.267 73.452C700.267 81.7827 696.906 88.6933 690.185 94.184C683.558 99.6747 675.18 102.42 665.051 102.42ZM782.162 1.59999H795.936V101H782.162V55.986H730.19V101H716.416V1.59999H730.19V42.922H782.162V1.59999ZM862.697 0.179995C876.897 0.179995 888.825 5.05533 898.481 14.806C908.137 24.5567 912.965 36.6267 912.965 51.016C912.965 65.5947 908.137 77.8067 898.481 87.652C888.825 97.4973 876.897 102.42 862.697 102.42C848.402 102.42 836.427 97.4973 826.771 87.652C817.21 77.8067 812.429 65.5947 812.429 51.016C812.429 36.6267 817.21 24.5567 826.771 14.806C836.427 5.05533 848.402 0.179995 862.697 0.179995ZM888.399 24.32C881.488 17.0307 872.921 13.386 862.697 13.386C852.473 13.386 843.858 17.0307 836.853 24.32C829.942 31.5147 826.487 40.4133 826.487 51.016C826.487 61.808 829.942 70.896 836.853 78.28C843.858 85.5693 852.473 89.214 862.697 89.214C872.921 89.214 881.488 85.5693 888.399 78.28C895.404 70.896 898.907 61.808 898.907 51.016C898.907 40.4133 895.404 31.5147 888.399 24.32ZM1002.97 101H986.5L960.088 59.678H943.19V101H929.416V1.59999H966.052C974.383 1.59999 981.435 4.39266 987.21 9.978C993.079 15.4687 996.014 22.2847 996.014 30.426C996.014 37.6207 994.121 43.7267 990.334 48.744C986.547 53.7613 981.435 57.0747 974.998 58.684L1002.97 101ZM943.048 14.664L943.19 46.614H965.768C970.501 46.614 974.43 45.0993 977.554 42.07C980.678 38.946 982.24 35.0647 982.24 30.426C982.24 25.882 980.678 22.1427 977.554 19.208C974.43 16.1787 970.501 14.664 965.768 14.664H943.048ZM1015.67 1.59999H1072.75V14.664H1029.44V41.928H1068.07V54.992H1029.44V87.936H1072.75V101H1015.67V1.59999ZM1123.22 102.42C1112.71 102.42 1104.01 99.3433 1097.09 93.19C1090.28 86.942 1086.87 79.0847 1086.87 69.618H1100.36C1100.36 75.4873 1102.49 80.268 1106.75 83.96C1111.01 87.652 1116.5 89.498 1123.22 89.498C1129.47 89.498 1134.63 88.0307 1138.7 85.096C1142.77 82.0667 1144.81 78.1853 1144.81 73.452C1144.81 68.8133 1142.87 65.1687 1138.98 62.518C1135.1 59.8673 1130.37 57.8793 1124.78 56.554C1119.29 55.2287 1113.76 53.7613 1108.17 52.152C1102.68 50.5427 1097.99 47.7027 1094.11 43.632C1090.23 39.5613 1088.29 34.1653 1088.29 27.444C1088.29 19.492 1091.41 12.96 1097.66 7.848C1103.91 2.736 1111.82 0.179995 1121.38 0.179995C1131.98 0.179995 1140.26 3.06733 1146.23 8.84199C1152.29 14.522 1155.31 21.622 1155.31 30.142H1141.26C1141.07 25.2193 1139.08 21.1487 1135.29 17.93C1131.6 14.7113 1126.82 13.102 1120.95 13.102C1115.27 13.102 1110.63 14.4273 1107.03 17.078C1103.44 19.7287 1101.64 23.184 1101.64 27.444C1101.64 30.568 1102.68 33.1713 1104.76 35.254C1106.85 37.3367 1109.54 38.946 1112.86 40.082C1116.26 41.1233 1119.96 42.1173 1123.93 43.064C1128 44.0107 1132.03 45.1467 1136 46.472C1140.07 47.7973 1143.77 49.454 1147.08 51.442C1150.49 53.43 1153.23 56.3173 1155.31 60.104C1157.4 63.796 1158.44 68.2453 1158.44 73.452C1158.44 81.7827 1155.08 88.6933 1148.36 94.184C1141.73 99.6747 1133.35 102.42 1123.22 102.42Z" fill="#222222"/>
<mask id="mask0_7_124" style="mask-type:alpha" maskUnits="userSpaceOnUse" x="7" y="0" width="1152" height="103">
<path d="M43.6621 102.42C33.1541 102.42 24.4448 99.3433 17.5341 93.19C10.7181 86.942 7.31014 79.0847 7.31014 69.618H20.8001C20.8001 75.4873 22.9301 80.268 27.1901 83.96C31.4501 87.652 36.9408 89.498 43.6621 89.498C49.9101 89.498 55.0695 88.0307 59.1401 85.096C63.2108 82.0667 65.2461 78.1853 65.2461 73.452C65.2461 68.8133 63.3055 65.1687 59.4241 62.518C55.5428 59.8673 50.8095 57.8793 45.2241 56.554C39.7335 55.2287 34.1955 53.7613 28.6101 52.152C23.1195 50.5427 18.4335 47.7027 14.5521 43.632C10.6708 39.5613 8.73014 34.1653 8.73014 27.444C8.73014 19.492 11.8541 12.96 18.1021 7.848C24.3501 2.736 32.2548 0.179995 41.8161 0.179995C52.4188 0.179995 60.7021 3.06733 66.6661 8.84199C72.7248 14.522 75.7541 21.622 75.7541 30.142H61.6961C61.5068 25.2193 59.5188 21.1487 55.7321 17.93C52.0401 14.7113 47.2595 13.102 41.3901 13.102C35.7101 13.102 31.0715 14.4273 27.4741 17.078C23.8768 19.7287 22.0781 23.184 22.0781 27.444C22.0781 30.568 23.1195 33.1713 25.2021 35.254C27.2848 37.3367 29.9828 38.946 33.2961 40.082C36.7041 41.1233 40.3961 42.1173 44.3721 43.064C48.4428 44.0107 52.4661 45.1467 56.4421 46.472C60.5128 47.7973 64.2048 49.454 67.5181 51.442C70.9261 53.43 73.6715 56.3173 75.7541 60.104C77.8368 63.796 78.8781 68.2453 78.8781 73.452C78.8781 81.7827 75.5175 88.6933 68.7961 94.184C62.1695 99.6747 53.7915 102.42 43.6621 102.42ZM161.857 1.59999V14.664H130.333V101H116.559V14.664H85.0352V1.59999H161.857ZM228.634 101L219.972 78.99H175.384L166.722 101H152.238L191.856 1.59999H203.642L243.544 101H228.634ZM180.638 65.926H214.86L197.82 22.332L180.638 65.926ZM328.749 101H312.277L285.865 59.678H268.967V101H255.193V1.59999H291.829C300.16 1.59999 307.213 4.39266 312.987 9.978C318.857 15.4687 321.791 22.2847 321.791 30.426C321.791 37.6207 319.898 43.7267 316.111 48.744C312.325 53.7613 307.213 57.0747 300.775 58.684L328.749 101ZM268.825 14.664L268.967 46.614H291.545C296.279 46.614 300.207 45.0993 303.331 42.07C306.455 38.946 308.017 35.0647 308.017 30.426C308.017 25.882 306.455 22.1427 303.331 19.208C300.207 16.1787 296.279 14.664 291.545 14.664H268.825ZM404.949 1.59999V14.664H373.425V101H359.651V14.664H328.127V1.59999H404.949ZM484.572 91.344C477.283 98.728 468.147 102.42 457.166 102.42C446.185 102.42 437.049 98.728 429.76 91.344C422.471 83.96 418.826 74.6827 418.826 63.512V1.59999H432.6V63.512C432.6 70.8013 434.919 76.9073 439.558 81.83C444.197 86.658 450.066 89.072 457.166 89.072C464.266 89.072 470.135 86.658 474.774 81.83C479.413 76.9073 481.732 70.8013 481.732 63.512V1.59999H495.506V63.512C495.506 74.6827 491.861 83.96 484.572 91.344ZM553.817 1.59999C562.526 1.59999 569.768 4.43999 575.543 10.12C581.412 15.7053 584.347 22.7107 584.347 31.136C584.347 39.5613 581.412 46.614 575.543 52.294C569.768 57.974 562.526 60.814 553.817 60.814H529.393V101H515.619V1.59999H553.817ZM553.817 47.75C558.55 47.75 562.526 46.1407 565.745 42.922C569.058 39.7033 570.715 35.7747 570.715 31.136C570.715 26.4973 569.058 22.616 565.745 19.492C562.526 16.2733 558.55 14.664 553.817 14.664H529.393V47.75H553.817ZM665.051 102.42C654.543 102.42 645.833 99.3433 638.923 93.19C632.107 86.942 628.699 79.0847 628.699 69.618H642.189C642.189 75.4873 644.319 80.268 648.579 83.96C652.839 87.652 658.329 89.498 665.051 89.498C671.299 89.498 676.458 88.0307 680.529 85.096C684.599 82.0667 686.635 78.1853 686.635 73.452C686.635 68.8133 684.694 65.1687 680.813 62.518C676.931 59.8673 672.198 57.8793 666.613 56.554C661.122 55.2287 655.584 53.7613 649.999 52.152C644.508 50.5427 639.822 47.7027 635.941 43.632C632.059 39.5613 630.119 34.1653 630.119 27.444C630.119 19.492 633.243 12.96 639.491 7.848C645.739 2.736 653.643 0.179995 663.205 0.179995C673.807 0.179995 682.091 3.06733 688.055 8.84199C694.113 14.522 697.143 21.622 697.143 30.142H683.085C682.895 25.2193 680.907 21.1487 677.121 17.93C673.429 14.7113 668.648 13.102 662.779 13.102C657.099 13.102 652.46 14.4273 648.863 17.078C645.265 19.7287 643.467 23.184 643.467 27.444C643.467 30.568 644.508 33.1713 646.591 35.254C648.673 37.3367 651.371 38.946 654.685 40.082C658.093 41.1233 661.785 42.1173 665.761 43.064C669.831 44.0107 673.855 45.1467 677.831 46.472C681.901 47.7973 685.593 49.454 688.907 51.442C692.315 53.43 695.06 56.3173 697.143 60.104C699.225 63.796 700.267 68.2453 700.267 73.452C700.267 81.7827 696.906 88.6933 690.185 94.184C683.558 99.6747 675.18 102.42 665.051 102.42ZM782.162 1.59999H795.936V101H782.162V55.986H730.19V101H716.416V1.59999H730.19V42.922H782.162V1.59999ZM862.697 0.179995C876.897 0.179995 888.825 5.05533 898.481 14.806C908.137 24.5567 912.965 36.6267 912.965 51.016C912.965 65.5947 908.137 77.8067 898.481 87.652C888.825 97.4973 876.897 102.42 862.697 102.42C848.402 102.42 836.427 97.4973 826.771 87.652C817.21 77.8067 812.429 65.5947 812.429 51.016C812.429 36.6267 817.21 24.5567 826.771 14.806C836.427 5.05533 848.402 0.179995 862.697 0.179995ZM888.399 24.32C881.488 17.0307 872.921 13.386 862.697 13.386C852.473 13.386 843.858 17.0307 836.853 24.32C829.942 31.5147 826.487 40.4133 826.487 51.016C826.487 61.808 829.942 70.896 836.853 78.28C843.858 85.5693 852.473 89.214 862.697 89.214C872.921 89.214 881.488 85.5693 888.399 78.28C895.404 70.896 898.907 61.808 898.907 51.016C898.907 40.4133 895.404 31.5147 888.399 24.32ZM1002.97 101H986.5L960.088 59.678H943.19V101H929.416V1.59999H966.052C974.383 1.59999 981.435 4.39266 987.21 9.978C993.079 15.4687 996.014 22.2847 996.014 30.426C996.014 37.6207 994.121 43.7267 990.334 48.744C986.547 53.7613 981.435 57.0747 974.998 58.684L1002.97 101ZM943.048 14.664L943.19 46.614H965.768C970.501 46.614 974.43 45.0993 977.554 42.07C980.678 38.946 982.24 35.0647 982.24 30.426C982.24 25.882 980.678 22.1427 977.554 19.208C974.43 16.1787 970.501 14.664 965.768 14.664H943.048ZM1015.67 1.59999H1072.75V14.664H1029.44V41.928H1068.07V54.992H1029.44V87.936H1072.75V101H1015.67V1.59999ZM1123.22 102.42C1112.71 102.42 1104.01 99.3433 1097.09 93.19C1090.28 86.942 1086.87 79.0847 1086.87 69.618H1100.36C1100.36 75.4873 1102.49 80.268 1106.75 83.96C1111.01 87.652 1116.5 89.498 1123.22 89.498C1129.47 89.498 1134.63 88.0307 1138.7 85.096C1142.77 82.0667 1144.81 78.1853 1144.81 73.452C1144.81 68.8133 1142.87 65.1687 1138.98 62.518C1135.1 59.8673 1130.37 57.8793 1124.78 56.554C1119.29 55.2287 1113.76 53.7613 1108.17 52.152C1102.68 50.5427 1097.99 47.7027 1094.11 43.632C1090.23 39.5613 1088.29 34.1653 1088.29 27.444C1088.29 19.492 1091.41 12.96 1097.66 7.848C1103.91 2.736 1111.82 0.179995 1121.38 0.179995C1131.98 0.179995 1140.26 3.06733 1146.23 8.84199C1152.29 14.522 1155.31 21.622 1155.31 30.142H1141.26C1141.07 25.2193 1139.08 21.1487 1135.29 17.93C1131.6 14.7113 1126.82 13.102 1120.95 13.102C1115.27 13.102 1110.63 14.4273 1107.03 17.078C1103.44 19.7287 1101.64 23.184 1101.64 27.444C1101.64 30.568 1102.68 33.1713 1104.76 35.254C1106.85 37.3367 1109.54 38.946 1112.86 40.082C1116.26 41.1233 1119.96 42.1173 1123.93 43.064C1128 44.0107 1132.03 45.1467 1136 46.472C1140.07 47.7973 1143.77 49.454 1147.08 51.442C1150.49 53.43 1153.23 56.3173 1155.31 60.104C1157.4 63.796 1158.44 68.2453 1158.44 73.452C1158.44 81.7827 1155.08 88.6933 1148.36 94.184C1141.73 99.6747 1133.35 102.42 1123.22 102.42Z" fill="#222222"/>
</mask>
<g mask="url(#mask0_7_124)">
<rect x="8" y="-20" width="1148" height="71" fill="#D9D9D9"/>
</g>
<path d="M727.088 136.2H732.272L746.224 173.64L760.176 136.2H765.296L748.336 181H744.112L727.088 136.2ZM771.494 136.2H776.294V181H771.494V136.2ZM784.703 136.2H816.127V139.656L789.567 176.392H816.383V181H783.231V177.48L809.919 140.808H784.703V136.2ZM854.403 181L850.051 170.056H828.867L824.515 181H819.395L837.315 136.2H841.667L859.651 181H854.403ZM830.723 165.448H848.259L839.491 143.304L830.723 165.448ZM904.53 157.192C904.658 158.003 904.722 159.027 904.722 160.264C904.722 166.408 902.674 171.507 898.578 175.56C894.524 179.613 889.49 181.64 883.474 181.64C877.159 181.64 871.847 179.421 867.538 174.984C863.228 170.504 861.074 165 861.074 158.472C861.074 152.029 863.228 146.611 867.538 142.216C871.847 137.779 877.159 135.56 883.474 135.56C888.039 135.56 892.263 136.904 896.146 139.592C900.071 142.28 902.588 145.523 903.698 149.32H898.258C897.276 146.717 895.356 144.563 892.498 142.856C889.682 141.107 886.674 140.232 883.474 140.232C878.567 140.232 874.428 141.981 871.058 145.48C867.73 148.979 866.066 153.309 866.066 158.472C866.066 163.677 867.751 168.072 871.122 171.656C874.492 175.197 878.695 176.968 883.73 176.968C888.082 176.968 891.772 175.56 894.802 172.744C897.874 169.885 899.58 166.28 899.922 161.928H884.498V157.192H904.53ZM928.369 136.2H953.393V140.808H933.169V154.76H951.217V159.368H933.169V176.392H953.393V181H928.369V136.2ZM975.944 136.2C982.173 136.2 987.4 138.312 991.624 142.536C995.848 146.717 997.96 152.008 997.96 158.408C997.96 164.808 995.848 170.184 991.624 174.536C987.4 178.845 982.173 181 975.944 181H962.056V136.2H975.944ZM976.2 176.392C981.021 176.392 985.011 174.685 988.168 171.272C991.368 167.859 992.968 163.571 992.968 158.408C992.968 153.288 991.389 149.085 988.232 145.8C985.075 142.472 981.064 140.808 976.2 140.808H966.856V176.392H976.2ZM1006.18 136.2H1010.98V181H1006.18V136.2ZM1052.16 136.2V140.808H1037.44V181H1032.64V140.808H1017.92V136.2H1052.16ZM1059.06 136.2H1063.86V181H1059.06V136.2ZM1078.6 142.216C1082.95 137.779 1088.31 135.56 1094.67 135.56C1101.02 135.56 1106.38 137.779 1110.73 142.216C1115.08 146.611 1117.26 152.029 1117.26 158.472C1117.26 165 1115.08 170.504 1110.73 174.984C1106.38 179.421 1101.02 181.64 1094.67 181.64C1088.31 181.64 1082.95 179.421 1078.6 174.984C1074.25 170.504 1072.07 165 1072.07 158.472C1072.07 152.029 1074.25 146.611 1078.6 142.216ZM1107.15 145.48C1103.77 141.981 1099.61 140.232 1094.67 140.232C1089.72 140.232 1085.53 141.981 1082.12 145.48C1078.75 148.979 1077.07 153.309 1077.07 158.472C1077.07 163.677 1078.75 168.072 1082.12 171.656C1085.53 175.197 1089.72 176.968 1094.67 176.968C1099.61 176.968 1103.77 175.197 1107.15 171.656C1110.56 168.072 1112.27 163.677 1112.27 158.472C1112.27 153.309 1110.56 148.979 1107.15 145.48ZM1125.43 136.2H1129.98L1155.06 172.168V136.2H1159.93V181H1155.45L1130.23 145.096V181H1125.43V136.2Z" fill="#FF6D1F"/>
</svg>
