<svg width="12" height="464" viewBox="0 0 12 464" fill="none" xmlns="http://www.w3.org/2000/svg">
<path d="M0.666667 6C0.666667 8.94552 3.05448 11.3333 6 11.3333C8.94552 11.3333 11.3333 8.94552 11.3333 6C11.3333 3.05448 8.94552 0.666667 6 0.666667C3.05448 0.666667 0.666667 3.05448 0.666667 6ZM0.666667 458C0.666667 460.946 3.05448 463.333 6 463.333C8.94552 463.333 11.3333 460.946 11.3333 458C11.3333 455.055 8.94552 452.667 6 452.667C3.05448 452.667 0.666667 455.055 0.666667 458ZM6 6H5V458H6H7V6H6Z" fill="#222222"/>
</svg>
